<svg xmlns="http://www.w3.org/2000/svg" viewBox="0 0 132.93 132.93"><defs><style>.cls-1{fill:#141414;}.cls-2{fill:#fff;}.cls-3{fill:none;}</style></defs><g id="Capa_2" data-name="Capa 2"><g id="Layer_1" data-name="Layer 1"><circle class="cls-1" cx="66.47" cy="66.47" r="61.33" transform="translate(-2.9 3.03) rotate(-2.56)"/><path class="cls-1" d="M66,3.09h.85V0H66Zm0,129.84h.85v-3.09H66ZM3.09,66H0v.86H3.09Zm126.75,0v.86h3.09V66ZM111.58,22l2.19-2.19-.61-.61L111,21.35ZM21.35,111l-2.19,2.19.61.61L22,111.58ZM22,21.35l-2.19-2.19-.61.61L21.35,22Zm89,90.23,2.19,2.19.61-.61L111.58,111ZM42.61,7.75,41.43,4.89l-.79.33,1.18,2.86ZM90.32,125.18,91.51,128l.79-.33-1.19-2.86ZM7.75,90.32,4.89,91.5l.34.8,2.85-1.19ZM125.18,42.61,128,41.43l-.33-.8-2.86,1.19ZM91.11,8.08,92.3,5.22l-.79-.33L90.32,7.75ZM41.82,124.85l-1.18,2.86.79.33,1.18-2.86Zm-33.74-83L5.23,40.63l-.34.8,2.86,1.18ZM124.85,91.11l2.86,1.19.33-.8-2.86-1.18ZM54.53,4.22l-.61-3-.84.17.6,3ZM78.41,128.71l.6,3,.84-.17-.6-3ZM4.23,78.41l-3,.6.16.84,3-.6ZM128.71,54.52l3-.6-.17-.84-3,.6ZM102,14l1.72-2.57L103,11l-1.72,2.57ZM30.9,118.92l-1.72,2.57.72.48,1.72-2.57ZM14,30.9l-2.57-1.72-.48.71,2.58,1.72ZM118.92,102l2.57,1.72L122,103l-2.57-1.72Zm-87.3-88.5L29.9,11l-.72.48L30.9,14ZM101.31,119.4,103,122l.72-.48L102,118.92ZM13.54,101.31,11,103l.48.72L14,102ZM119.4,31.61,122,29.89l-.48-.71-2.57,1.72Zm-41-27.39.84.17.6-3L79,1.19ZM53.08,131.57l.84.17.61-3-.85-.17ZM4.39,53.68l-3-.6-.16.84,3,.6ZM128.54,79.25l3,.6.17-.84-3-.6ZM60.68,3.35,60.38.28l-.85.08.3,3.08ZM72.25,129.58l.3,3.07.86-.08-.3-3.08ZM3.35,72.25l-3.07.3.08.86,3.08-.3ZM129.58,60.68l3.07-.3-.08-.86-3.08.31ZM107,17.75l2-2.39-.67-.55-2,2.39ZM25.93,115.18l-2,2.39.66.55,2-2.39ZM17.75,25.93l-2.39-2-.54.66,2.39,2ZM115.18,107l2.39,2,.55-.66-2.39-2ZM37,10.37,35.51,7.65l-.75.4,1.45,2.73ZM96,122.56l1.46,2.73.76-.41-1.46-2.73ZM10.37,96,7.64,97.42l.41.76,2.73-1.46ZM122.56,37l2.73-1.46-.41-.76-2.72,1.46Zm-37.29-31L86.17,3l-.82-.25-.9,3ZM47.66,127l-.9,3,.82.24.9-3ZM5.94,47.66,3,46.76l-.25.82,3,.9ZM127,85.27l3,.9.24-.82-3-.9ZM48.48,5.69l-.9-2.95L46.76,3l.9,3Zm36,121.55.9,3,.82-.24-.9-3ZM5.7,84.45l-3,.9.25.82,3-.9Zm121.54-36,3-.9-.24-.82-3,.9ZM96.72,10.78l1.46-2.73-.76-.4L96,10.37ZM36.21,122.15l-1.45,2.73.75.41L37,122.56ZM10.78,36.21,8.05,34.75l-.41.76L10.37,37ZM122.16,96.72l2.72,1.46.41-.76L122.56,96ZM26.6,17.2l-2-2.39-.66.55,2,2.39Zm79.74,98.53,2,2.39.67-.55-2-2.39Zm-89.13-9.39-2.39,2,.54.66,2.39-2Zm98.52-79.75,2.39-2-.55-.66-2.39,2ZM72.25,3.35l.86.09.3-3.08L72.55.28ZM59.53,132.57l.85.08.3-3.07-.85-.09ZM3.44,59.83.36,59.52l-.08.86,3.07.3ZM129.49,73.11l3.08.3.08-.86-3.07-.3Zm-65.7-70L63.63.06l-.85,0,.15,3.09Zm5.36,126.65.15,3.08.85,0L70,129.74Zm-66-60.64L.06,69.3l0,.86L3.19,70Zm126.63-5.36,3.09-.16,0-.85-3.09.15Zm-20.44-44,2.08-2.3-.64-.57-2.07,2.29ZM23.59,113.13l-2.08,2.29.64.58,2.07-2.29ZM19.8,23.59l-2.29-2.08-.58.64,2.29,2.07Zm93.33,85.75,2.3,2.08.57-.64-2.28-2.07ZM39.76,9,38.44,6.2l-.78.36L39,9.36Zm53.41,115,1.33,2.79.77-.36L94,123.57ZM9,93.17,6.2,94.5l.37.77L9.36,94Zm115-53.41,2.8-1.33-.37-.77L123.57,39ZM88.22,6.94l1-2.91-.81-.29-1,2.91ZM44.71,126l-1,2.91.81.29,1-2.91ZM6.94,44.71,4,43.67l-.29.81,2.91,1ZM126,88.22l2.91,1,.29-.81-2.91-1ZM49.9,2.09l.75,3,.83-.21-.75-3ZM81.45,128l.75,3,.83-.21-.75-3ZM4.89,81.45l-3,.75L2.1,83l3-.75Zm123.16-30,3-.75-.2-.83-3,.75ZM99.42,12.33,101,9.68l-.73-.45-1.59,2.66ZM33.52,120.6l-1.59,2.65.73.45L34.25,121ZM12.33,33.52,9.68,31.93l-.44.73,2.65,1.59ZM120.6,99.41l2.65,1.59.44-.73-2.64-1.59ZM29.06,15.3l-1.84-2.48-.69.51,1.84,2.49Zm74.81,102.32,1.84,2.49.69-.51-1.84-2.49ZM15.31,103.87l-2.48,1.84.51.69,2.48-1.84ZM117.63,29.06l2.48-1.85-.51-.68-2.49,1.84ZM75.34,3.71l.85.13L76.64.78,75.8.65ZM56.29,132.15l.85.13.45-3.06-.85-.13ZM3.84,56.74.78,56.29l-.12.85,3.05.45ZM129.09,76.19l3.06.45.13-.85-3.06-.45ZM57.59,3.71l-.45-3-.85.12.45,3.06ZM75.34,129.22l.46,3.06.84-.13-.45-3.06ZM3.71,75.34l-3,.45.12.85,3.06-.45ZM129.22,57.59l3.06-.45-.13-.85-3.06.45ZM104.56,15.82l1.84-2.49-.69-.51-1.84,2.48ZM28.37,117.11l-1.84,2.49.69.51,1.84-2.49ZM15.82,28.37l-2.48-1.84-.51.68,2.48,1.85Zm101.29,76.19,2.49,1.84.51-.69-2.48-1.84ZM34.26,11.89l-1.6-2.66-.73.45,1.59,2.65ZM98.68,121l1.59,2.66.73-.45-1.58-2.65ZM11.89,98.68l-2.65,1.59.44.73,2.65-1.59ZM121.05,34.25l2.64-1.59-.44-.73-2.65,1.59ZM82.28,5.1l.75-3-.83-.2-.75,3ZM49.9,130.83l.83.21.75-3-.83-.2ZM5.1,50.65l-3-.75-.21.83,3,.75ZM127.84,82.28l3,.75.2-.83-3-.75ZM45.52,6.65l-1-2.91L43.67,4l1,2.91ZM87.41,126.28l1,2.91.81-.29-1-2.91ZM6.65,87.41l-2.91,1,.29.81,2.91-1ZM126.28,45.52l2.91-1-.29-.81-2.91,1ZM94,9.36l1.32-2.8L94.5,6.2,93.17,9ZM39,123.57l-1.32,2.8.78.36,1.32-2.79ZM9.36,39,6.57,37.66l-.37.77L9,39.76ZM123.57,94l2.8,1.32.37-.78-2.8-1.32ZM24.22,19.22l-2.07-2.29-.64.57,2.08,2.3Zm84.49,94.49,2.07,2.29.64-.58-2.08-2.29Zm-89.49-5-2.29,2.07.58.64,2.29-2.08Zm94.5-84.49L116,22.15l-.57-.64-2.3,2.08ZM69.15,3.14l.86,0L70.16.1l-.86,0ZM62.78,132.83l.85,0,.16-3.08-.86,0ZM3.19,62.93.1,62.78l0,.85,3.09.16ZM129.74,70l3.09.15,0-.85-3.09-.15ZM65.34,3.1,65.27,0,64.4,0l.08,3.09ZM67.6,129.83l.07,3.09.86,0-.08-3.09ZM3.1,67.59,0,67.67l0,.86,3.09-.08Zm126.73-2.25,3.09-.08,0-.85-3.09.07ZM110.48,20.86l2.13-2.24L112,18l-2.14,2.24Zm-88,91.21-2.14,2.24.63.59,2.13-2.24Zm-1.6-89.61-2.23-2.14L18,21l2.24,2.13Zm91.21,88,2.24,2.13.59-.63-2.24-2.13ZM41.18,8.35,39.93,5.53l-.79.34L40.39,8.7ZM91.75,124.58,93,127.4l.78-.35-1.25-2.82ZM8.36,91.75,5.53,93l.35.78L8.7,92.54ZM124.58,41.18l2.82-1.26-.34-.78-2.83,1.25ZM89.68,7.49l1.11-2.88L90,4.3,88.87,7.18Zm-46.42,118-1.11,2.88.8.31,1.11-2.88ZM7.49,43.26,4.61,42.14,4.3,43l2.88,1.11Zm118,46.42,2.88,1.11.31-.8-2.88-1.12ZM53,4.54l-.68-3-.84.19.68,3ZM79.93,128.39l.68,3,.84-.19-.68-3ZM4.54,79.93l-3,.68.19.84,3-.68ZM128.39,53l3-.68-.19-.84-3,.68ZM100.73,13.15l1.66-2.61-.73-.46L100,12.69ZM32.2,119.78l-1.65,2.61.72.46,1.65-2.61ZM13.15,32.2l-2.61-1.66-.46.73,2.61,1.65Zm106.63,68.53,2.61,1.66.46-.73L120.24,100ZM30.33,14.4l-1.79-2.53-.7.5,1.78,2.53Zm72.28,104.13,1.78,2.52.7-.49L103.31,118Zm-88.2-15.92-2.53,1.77.49.71,2.53-1.78ZM118.53,30.32l2.53-1.78-.5-.7L118,29.62ZM78.25,1.05,77.41.9,76.88,4l.84.15ZM54.68,131.88l.85.15.53-3.05-.85-.15ZM4.1,55.21l-3-.53-.14.85,3,.52ZM128.83,77.72l3,.53.15-.85L129,76.87ZM59.13,3.51,58.76.45l-.86.1.38,3.07ZM73.8,129.42l.38,3.06.85-.1-.38-3.07ZM3.52,73.8l-3.07.38.1.85,3.07-.38Zm125.9-14.66,3.07-.38-.11-.86-3.07.38ZM105.79,16.77l1.91-2.44L107,13.8l-1.9,2.44ZM27.14,116.16l-1.9,2.44.67.53,1.91-2.44Zm-10.37-89-2.44-1.91-.53.68,2.44,1.9Zm99.39,78.65,2.44,1.91.53-.68-2.44-1.9ZM35.6,11.11,34.08,8.42l-.75.43,1.53,2.68ZM97.33,121.82l1.52,2.69.75-.43-1.52-2.69ZM11.11,97.33,8.42,98.85l.43.75,2.69-1.53ZM121.82,35.6l2.69-1.52-.43-.75-2.68,1.52Zm-38-30.1.82-3-.82-.23-.83,3ZM49.15,127.43l-.82,3,.82.23.83-3ZM5.5,49.15l-3-.83-.22.83,3,.83ZM127.43,83.78l3,.82.23-.82-3-.83ZM47,6.15,46,3.22l-.82.27,1,2.93ZM85.94,126.78l1,2.93.81-.27-1-2.93ZM6.16,85.94l-2.94,1,.27.82,2.94-1ZM126.78,47l2.93-1-.27-.81-2.94,1ZM95.34,10.05l1.39-2.76L96,6.9l-1.4,2.76ZM37.59,122.88l-1.39,2.76L37,126l1.39-2.76ZM10.05,37.59,7.29,36.2,6.9,37l2.77,1.39ZM122.88,95.34l2.76,1.39L126,96l-2.76-1.39ZM25.4,18.2l-2-2.34-.65.56,2,2.34Zm82.14,96.54,2,2.33.65-.56-2-2.34ZM18.2,107.53l-2.34,2,.56.66,2.34-2ZM114.73,25.4l2.34-2-.56-.64-2.34,2ZM71.78.21,70.93.15,70.7,3.23l.86.06ZM61.15,132.72l.86.07.22-3.09-.85-.06ZM3.3,61.38.21,61.15.15,62l3.08.22ZM129.64,71.56l3.08.22.06-.86-3.08-.22ZM62.23,3.23,62,.15l-.86.06.23,3.08ZM70.7,129.7l.23,3.08.85-.06-.22-3.08ZM3.23,70.7l-3.08.22.06.86,3.09-.22ZM129.7,62.23l3.08-.22-.06-.86-3.08.23ZM108.19,18.76l2-2.34-.66-.56-2,2.34ZM24.75,114.17l-2,2.34.65.56,2-2.33Zm-6-89.42-2.34-2-.56.64,2.34,2Zm95.41,83.43,2.34,2,.56-.65-2.34-2ZM38.36,9.66,37,6.9l-.77.39,1.39,2.76ZM94.58,123.27,96,126l.76-.39-1.39-2.76ZM9.67,94.57,6.9,96l.39.76,2.76-1.39Zm113.6-56.21L126,37l-.39-.77-2.76,1.39ZM86.75,6.42l1-2.93-.81-.27-1,2.93ZM46.18,126.51l-1,2.93.82.27,1-2.93ZM6.42,46.18l-2.93-1L3.22,46l2.93,1ZM126.5,86.75l2.94,1,.27-.82-2.93-1ZM50,5.27l-.83-3-.82.23.82,3ZM83,127.66l.83,3,.82-.23-.82-3ZM5.27,83l-3,.83.22.82,3-.82ZM127.66,50l3-.83-.23-.83-3,.83ZM98.08,11.53,99.6,8.85l-.75-.43-1.52,2.69ZM34.86,121.39l-1.53,2.69.75.43,1.52-2.69ZM11.54,34.85,8.85,33.33l-.43.75,2.69,1.52ZM121.4,98.07l2.68,1.53.43-.75-2.69-1.52ZM27.82,16.24,25.91,13.8l-.67.53,1.9,2.44Zm77.3,100.45,1.9,2.44.68-.53-1.91-2.44ZM16.24,105.12,13.8,107l.53.68,2.44-1.91ZM116.69,27.81l2.44-1.9-.53-.68-2.44,1.91ZM73.8,3.51l.85.11L75,.55l-.85-.1ZM57.91,132.38l.85.1.38-3.06-.85-.11ZM3.62,58.28.55,57.9l-.1.86,3.07.38ZM129.31,74.65l3.07.37.11-.84-3.07-.38ZM56.06,4,55.53.9l-.85.15.53,3.05ZM76.88,129l.53,3.05.84-.15-.53-3ZM4,76.87l-3,.53.14.85,3.05-.53ZM129,56.05l3.05-.52-.15-.85-3,.53ZM103.31,14.9l1.78-2.53-.7-.5-1.78,2.53ZM29.62,118l-1.78,2.53.7.49,1.79-2.52ZM14.9,29.62l-2.53-1.78-.49.71,2.53,1.77ZM118,103.31l2.52,1.78.5-.71-2.53-1.77ZM32.92,12.69l-1.65-2.61-.73.46,1.66,2.61ZM100,120.24l1.65,2.61.73-.46-1.66-2.61ZM12.7,100l-2.62,1.65.46.73,2.61-1.66ZM120.24,32.92l2.61-1.65-.46-.73-2.61,1.66ZM81.45,1.71l-.84-.19-.68,3,.84.18Zm-30,129.51.84.19.68-3-.84-.18ZM4.73,52.16l-3-.68-.19.84,3,.68ZM128.21,80.77l3,.68.19-.84-3-.68ZM44.06,7.18,43,4.3l-.8.31,1.11,2.88ZM88.87,125.75,90,128.63l.81-.31-1.11-2.88ZM7.18,88.87,4.3,90l.31.8,2.88-1.11ZM125.75,44.06l2.88-1.12-.31-.8-2.88,1.11ZM92.54,8.7l1.25-2.83L93,5.53,91.75,8.35ZM40.39,124.23l-1.25,2.82.79.35,1.25-2.82ZM8.7,40.39,5.88,39.14l-.35.78,2.83,1.26ZM124.23,92.54l2.83,1.25.35-.79-2.83-1.25ZM23.08,20.27,21,18l-.63.59,2.14,2.24Zm86.77,92.39L112,114.9l.62-.59-2.13-2.24Zm-89.58-2.81L18,112l.6.63,2.23-2.13Zm92.39-86.77L114.9,21l-.59-.63-2.24,2.13ZM68.53,0l-.86,0L67.6,3.1l.85,0ZM64.4,132.9l.87,0,.07-3.09-.86,0ZM3.12,64.48,0,64.41l0,.85,3.09.08Zm126.69,4,3.09.08,0-.86-3.09-.08Z"/><path class="cls-2" d="M71.68,80.88v6.94H50V80.88h5.23V53.66H50V46.72H71.68q7.56,0,11.69,3.54a12,12,0,0,1,4.12,9.55A13.26,13.26,0,0,1,86,66a11,11,0,0,1-3.71,4.28,13.74,13.74,0,0,1-5.17,2,39.9,39.9,0,0,1-7.28.55H66v8ZM66,66h1.59c3.67,0,6-.59,7.08-1.79a6.47,6.47,0,0,0,1.58-4.44A6.55,6.55,0,0,0,75.11,56,4.55,4.55,0,0,0,72.6,54,20.33,20.33,0,0,0,68,53.66H66Z"/><path class="cls-3" d="M65.31,25.42l-27.88,12-2.31-2.3a44.31,44.31,0,0,0,0,62.69l2.31-2.3,29.7,12-1.55,3.26.89,0A44.33,44.33,0,0,0,80.61,24.45l.19,4.29Z"/><path class="cls-2" d="M22.13,67.47a44.15,44.15,0,0,1,13-31.35l-6.75-6.75a53.87,53.87,0,0,0,0,76.19l6.75-6.75A44.15,44.15,0,0,1,22.13,67.47Z"/><path class="cls-2" d="M66.24,33h.45V28.74h-.45Zm0,71.22h.45V100h-.45ZM100,66.24v.45h4.23v-.45Zm-67,0H28.74v.45H33Zm57.34-23.3,3-3L93,39.63l-3,3ZM42.62,90l-3,3,.32.32,3-3ZM90,90.31l3,3L93.3,93l-3-3Zm-47-47.69-3-3-.32.32,3,3Zm10.92-7.19-1.62-3.91-.42.18,1.62,3.91ZM79.07,97.5l1.62,3.91.42-.18-1.62-3.91ZM97.5,53.86l3.91-1.62-.18-.42-3.91,1.62ZM35.44,79.07l-3.92,1.62.18.42,3.91-1.62ZM79.49,35.61l1.62-3.91-.42-.18-1.62,3.91Zm-26,61.71-1.62,3.91.42.18,1.62-3.91ZM97.32,79.49l3.91,1.62.18-.42L97.5,79.07Zm-61.71-26L31.7,51.82l-.18.42,3.92,1.62ZM58.88,29.51l.83,4.15.44-.09-.82-4.15Zm13.9,69.85.82,4.15.45-.09-.83-4.15ZM99.36,60.15l4.15-.82-.09-.45-4.15.83ZM33.57,72.78l-4.15.82.09.45,4.15-.83Zm51.69-34,2.35-3.52L87.24,35l-2.35,3.52ZM47.67,94.19l-2.35,3.52.37.25,2.36-3.52Zm46.52-8.93,3.52,2.35.25-.37-3.52-2.36ZM38.74,47.67l-3.52-2.35-.25.37,3.52,2.36Zm9.31-9.18L45.69,35l-.37.25,2.35,3.52Zm36.84,56L87.24,98l.37-.25-2.35-3.52Zm9.55-46.39L98,45.69l-.25-.37-3.52,2.35ZM38.49,84.88,35,87.24l.25.37,3.52-2.35ZM72.78,33.57l.44.09.83-4.15-.45-.09Zm-13.9,69.85.45.09.82-4.15-.44-.09Zm40.39-30.2,4.15.83.09-.45-4.15-.82ZM33.66,59.71l-4.15-.83-.09.45,4.15.82ZM62.54,28.94,63,33.16l.45,0L63,28.9Zm7,70.88.42,4.21.45,0L70,99.77Zm30.3-36.41L104,63l0-.45L99.77,63ZM33.11,69.52l-4.21.42,0,.45L33.16,70Zm54.78-28.8,2.68-3.27-.34-.29-2.69,3.27ZM45,92.21l-2.68,3.27.35.29,2.68-3.27Zm47.17-4.32,3.28,2.68.28-.35L92.5,87.54ZM40.72,45l-3.27-2.68-.29.35,3.27,2.68Zm10.16-8.22-2-3.73-.4.21,2,3.73ZM82.05,96.11l2,3.73.4-.21-2-3.73ZM96.11,50.88l3.73-2-.21-.4-3.73,2ZM36.82,82.05l-3.73,2,.21.4,3.74-2ZM77.63,30.43l-.43-.13L76,34.35l.43.13ZM55.3,102.5l.43.13,1.23-4-.43-.13ZM98.45,76.4l4,1.23.13-.43-4-1.23Zm-64-19.87-4-1.23-.13.43L34.35,57ZM55.3,30.43l1.23,4,.43-.13L55.73,30.3ZM76,98.58l1.23,4,.43-.13-1.23-4ZM98.58,57l4-1.23-.13-.43-4,1.23ZM34.35,76,30.3,77.2l.13.43,4-1.23ZM82.45,37l2-3.73-.4-.21-2,3.73Zm-32,58.87-2,3.73.4.21,2-3.73ZM95.9,82.45l3.73,2,.22-.4-3.74-2ZM37,50.48l-3.74-2-.21.4,3.73,2Zm8.35-10-2.68-3.27-.35.29L45,40.72ZM87.54,92.5l2.69,3.27.34-.29-2.68-3.27Zm5-47.11,3.27-2.68-.29-.35L92.21,45ZM40.43,87.54l-3.27,2.68.29.35,3.27-2.68ZM69.52,33.11l.46,0,.41-4.22-.45,0Zm-7,70.88.45,0,.42-4.21-.45,0ZM99.77,70l4.22.42,0-.45-4.21-.42ZM33.16,63l-4.22-.42,0,.45,4.21.42ZM64.39,28.79,64.6,33l.45,0-.21-4.23Zm3.49,71.14.21,4.23.45,0-.2-4.22ZM99.93,65.05l4.23-.21,0-.45-4.23.2ZM33,67.88l-4.23.21,0,.45L33,68.33ZM89.13,41.8,92,38.66l-.34-.3L88.79,41.5ZM43.81,91.13,41,94.27l.34.3,2.84-3.14Zm47.32-2L94.27,92l.3-.34-3.13-2.84ZM41.8,43.81,38.66,41l-.3.34,3.14,2.84Zm10.55-7.72-1.81-3.83-.41.2,1.81,3.82ZM80.58,96.84l1.81,3.83.41-.2L81,96.65ZM96.84,52.35l3.83-1.81-.2-.41-3.82,1.81ZM36.09,80.58l-3.83,1.81.2.41L36.29,81ZM78,35l1.43-4L79,30.87l-1.42,4ZM55,97.92l-1.43,4,.43.15,1.42-4Zm43-20,4,1.43.15-.43-4-1.43ZM35,55l-4-1.43-.15.43,4,1.43Zm22.07-25,1,4.11.44-.11-1-4.11ZM74.38,99l1,4.11.44-.11-1-4.11ZM99,58.55l4.11-1-.11-.44-4.11,1ZM33.92,74.38l-4.11,1,.11.44,4.11-1Zm50-36.53,2.18-3.63L85.67,34l-2.18,3.63ZM49.05,95.08l-2.17,3.63.38.23,2.18-3.63Zm46-11.2,3.63,2.17.23-.38-3.63-2.18ZM37.85,49.05l-3.63-2.18-.23.39,3.63,2.18Zm8.85-9.62L44.17,36l-.36.27,2.52,3.4ZM86.23,93.5l2.53,3.4.36-.27-2.52-3.4ZM93.5,46.7l3.4-2.53-.27-.36-3.4,2.52ZM39.43,86.23,36,88.76l.27.36,3.4-2.52ZM71.16,33.3l.44.07.63-4.19-.45-.07ZM60.71,103.75l.44.07.63-4.19-.45-.07ZM99.56,71.61l4.19.61.07-.44-4.19-.62ZM33.37,61.33l-4.19-.63-.07.45,4.19.63ZM60.71,29.18l.62,4.19.45-.07-.63-4.19ZM71.16,99.63l.62,4.19.45-.07-.63-4.19ZM99.63,61.78l4.19-.63-.07-.44-4.19.62ZM33.3,71.16l-4.19.62.07.45,4.19-.62ZM86.6,39.7l2.52-3.4L88.76,36l-2.52,3.4ZM46.33,93.23l-2.52,3.4.36.27,2.53-3.4Zm46.9-6.63,3.4,2.52.27-.36-3.4-2.52ZM39.7,46.33l-3.4-2.52-.27.36,3.4,2.53Zm9.74-8.71L47.26,34l-.39.23,2.18,3.63ZM83.49,95.31l2.18,3.63.39-.23-2.18-3.63ZM95.31,49.44l3.63-2.18-.23-.39-3.63,2.18ZM37.62,83.49,34,85.67l.23.38,3.63-2.17ZM74.38,33.92l.44.11,1-4.11-.44-.11ZM57.08,103l.44.11,1-4.11-.44-.11ZM98.9,74.82l4.11,1,.11-.44-4.11-1ZM34,58.11l-4.11-1-.11.44,4.11,1ZM55.39,34.86l-1.42-4-.43.15L55,35ZM77.53,98.08l1.43,4,.43-.15-1.43-4ZM98.08,55.4l4-1.43-.15-.43-4,1.43ZM34.85,77.53l-4,1.43.15.43L35,78ZM81,36.28l1.81-3.82-.41-.2-1.81,3.83Zm-29,60.37-1.81,3.82.41.2,1.81-3.83ZM96.64,81l3.83,1.81.2-.41-3.83-1.81Zm-60.35-29-3.83-1.81-.2.41,3.83,1.81ZM44.14,41.5,41.3,38.36l-.34.31,2.85,3.13ZM88.79,91.43l2.84,3.14.34-.3-2.84-3.14Zm2.65-47.29,3.13-2.84-.3-.34-3.14,2.85ZM41.5,88.79l-3.14,2.84.3.34,3.14-2.84ZM67.88,33l.46,0,.2-4.24-.45,0Zm-3.49,71.13.45,0,.21-4.23-.45,0ZM99.91,68.34l4.23.2,0-.45-4.23-.21ZM33,64.6l-4.23-.21,0,.45,4.23.21Z"/><path class="cls-2" d="M110.44,67.46a44.15,44.15,0,0,1-13,31.35l6.75,6.75a53.87,53.87,0,0,0,0-76.19l-6.75,6.75A44.15,44.15,0,0,1,110.44,67.46Z"/><path class="cls-2" d="M38.3,20.16,42.62,18a4.55,4.55,0,0,1,1.66-.51,3.35,3.35,0,0,1,1.37.18,2.92,2.92,0,0,1,1.07.7,4.07,4.07,0,0,1,1.14,2.27,3,3,0,0,1-.09,1.27,3.17,3.17,0,0,1-.68,1.2,4.35,4.35,0,0,1-1.4,1l-2.21,1.11,1.72,3.43-2.11,1.06Zm4.36,3.45,1.64-.82a4.94,4.94,0,0,0,.67-.4,1.88,1.88,0,0,0,.48-.5,1.21,1.21,0,0,0,.19-.65,1.71,1.71,0,0,0-.21-.81,1.81,1.81,0,0,0-.52-.66,1.28,1.28,0,0,0-.63-.23,1.76,1.76,0,0,0-.7.09,4.34,4.34,0,0,0-.72.29l-1.64.82Z"/><path class="cls-2" d="M57.1,20.21l.09,0,3.6,3.25-2.58.6-3.5-3.15-1.13.26.87,3.76-2.29.53L49.74,15l4.69-1.09a4.59,4.59,0,0,1,1.74-.1,3.26,3.26,0,0,1,1.3.49,2.83,2.83,0,0,1,.89.93,4.08,4.08,0,0,1,.58,2.26,3.4,3.4,0,0,1-.23,1.06,2.92,2.92,0,0,1-.59.94A3.18,3.18,0,0,1,57.1,20.21Zm-2.87-4.38-1.79.41.73,3.14L55,19a4,4,0,0,0,.76-.24,1.62,1.62,0,0,0,.59-.38,1.32,1.32,0,0,0,.32-.58,1.74,1.74,0,0,0,0-.84,1.89,1.89,0,0,0-.35-.78,1.31,1.31,0,0,0-.54-.38A1.73,1.73,0,0,0,55,15.7,4.53,4.53,0,0,0,54.23,15.83Z"/><path class="cls-2" d="M64.79,21.27l6,.09,0,2-8.32-.13.17-10.74,7.82.13,0,2-5.53-.09,0,2.41,4.89.08,0,2.09L64.83,19Z"/><path class="cls-2" d="M74.89,20.42a1.87,1.87,0,0,0,0,.94,1.58,1.58,0,0,0,.37.7,2.23,2.23,0,0,0,.65.51,3.81,3.81,0,0,0,.86.31,6.39,6.39,0,0,0,.67.09,2.11,2.11,0,0,0,.71,0,1.5,1.5,0,0,0,.6-.28,1.06,1.06,0,0,0,.35-.61,1,1,0,0,0-.11-.75,2.68,2.68,0,0,0-.61-.6,5.82,5.82,0,0,0-.93-.53c-.35-.17-.71-.35-1.06-.54A12.25,12.25,0,0,1,75.32,19a4.06,4.06,0,0,1-.87-.77,2.66,2.66,0,0,1-.52-1,2.55,2.55,0,0,1,0-1.29,2.84,2.84,0,0,1,.66-1.32,3.23,3.23,0,0,1,1.12-.78,4,4,0,0,1,1.4-.3,5.76,5.76,0,0,1,1.44.12,7.28,7.28,0,0,1,1.53.54,4.11,4.11,0,0,1,1.21.9A3,3,0,0,1,82,16.34,3.28,3.28,0,0,1,82,18l-2.23-.5a1.85,1.85,0,0,0,0-.82,1.26,1.26,0,0,0-.34-.58,2.06,2.06,0,0,0-.58-.4,4.5,4.5,0,0,0-.76-.24,2.22,2.22,0,0,0-.57-.07,1.63,1.63,0,0,0-.55.09,1.16,1.16,0,0,0-.46.29,1,1,0,0,0-.27.51,1,1,0,0,0,0,.53,1.09,1.09,0,0,0,.39.45,6.92,6.92,0,0,0,.88.53c.38.21.87.46,1.49.78l.47.23a7,7,0,0,1,.6.37,4.81,4.81,0,0,1,.61.52,2.92,2.92,0,0,1,.5.68,2.48,2.48,0,0,1,.29.87,2.84,2.84,0,0,1-.06,1.07,3.14,3.14,0,0,1-.58,1.27,2.83,2.83,0,0,1-1.06.87,4.09,4.09,0,0,1-1.52.4A6.89,6.89,0,0,1,74.65,24a4.42,4.42,0,0,1-1.28-1,3.67,3.67,0,0,1-.73-1.38,3.58,3.58,0,0,1,0-1.75Z"/><path class="cls-2" d="M85,23.39a1.92,1.92,0,0,0-.22.91,1.71,1.71,0,0,0,.21.78,2.23,2.23,0,0,0,.53.63,3.49,3.49,0,0,0,.77.49,4.6,4.6,0,0,0,.63.24,2.43,2.43,0,0,0,.7.11,1.44,1.44,0,0,0,.65-.15,1.09,1.09,0,0,0,.48-.51,1,1,0,0,0,.05-.76,2.42,2.42,0,0,0-.46-.72,6.28,6.28,0,0,0-.79-.72c-.31-.24-.61-.5-.92-.76s-.61-.54-.9-.84a4.31,4.31,0,0,1-.68-.94,2.89,2.89,0,0,1-.29-1.09,2.6,2.6,0,0,1,.3-1.26A2.79,2.79,0,0,1,86,17.66a3.23,3.23,0,0,1,1.27-.52,4.24,4.24,0,0,1,1.42,0,5.32,5.32,0,0,1,1.38.45,6.42,6.42,0,0,1,1.38.86,3.92,3.92,0,0,1,1,1.14,3.11,3.11,0,0,1,.4,1.37,3.41,3.41,0,0,1-.36,1.58l-2.06-1a2,2,0,0,0,.16-.81,1.38,1.38,0,0,0-.2-.64,2.17,2.17,0,0,0-.49-.52,4.19,4.19,0,0,0-.69-.41,3.13,3.13,0,0,0-.54-.19,1.76,1.76,0,0,0-.56,0,1.55,1.55,0,0,0-.51.18,1,1,0,0,0-.37.45.93.93,0,0,0-.11.51,1,1,0,0,0,.27.52,8.73,8.73,0,0,0,.74.72l1.29,1.08.4.33c.17.15.34.31.51.49a4.64,4.64,0,0,1,.48.64,3,3,0,0,1,.34.78,2.46,2.46,0,0,1,.09.91,2.82,2.82,0,0,1-.29,1,3.14,3.14,0,0,1-.84,1.11,2.87,2.87,0,0,1-1.23.62,4.08,4.08,0,0,1-1.57,0,6.22,6.22,0,0,1-1.86-.59A6.12,6.12,0,0,1,84,26.87a4.33,4.33,0,0,1-1-1.25,3.49,3.49,0,0,1-.4-1.5,3.41,3.41,0,0,1,.4-1.7Z"/><path class="cls-2" d="M41.17,110l-2.07,4-2-1L42,103.55l2,1L42.21,108l4.31,2.26,1.75-3.34,2,1.05-4.87,9.28-2-1,2.07-4Z"/><path class="cls-2" d="M61.57,116a5.29,5.29,0,0,1-.85,2,5.66,5.66,0,0,1-1.49,1.44,5.39,5.39,0,0,1-1.93.79,5.15,5.15,0,0,1-2.14,0,5.28,5.28,0,0,1-2-.84,5.42,5.42,0,0,1-2.24-3.4,5.45,5.45,0,0,1,.86-4.15,5.51,5.51,0,0,1,1.48-1.45,5.42,5.42,0,0,1,1.92-.79,5.08,5.08,0,0,1,2.16,0,5.25,5.25,0,0,1,2,.84,5.37,5.37,0,0,1,2.25,3.41A5.24,5.24,0,0,1,61.57,116Zm-4.67-4.24a3,3,0,0,0-1.27,0,3.32,3.32,0,0,0-2,1.34,2.81,2.81,0,0,0-.5,1.16,3,3,0,0,0,0,1.27,3.23,3.23,0,0,0,.47,1.13,3.38,3.38,0,0,0,.85.88,3.12,3.12,0,0,0,2.42.5,3.43,3.43,0,0,0,1.13-.47,3.23,3.23,0,0,0,.87-.86,3.1,3.1,0,0,0,.5-1.16,3.19,3.19,0,0,0,0-1.27,3.25,3.25,0,0,0-1.3-2A3,3,0,0,0,56.9,111.72Z"/><path class="cls-2" d="M66.4,112.63l-3.33.11L63,110.81l8.94-.28.06,1.94-3.31.09L69,121.1l-2.3.07Z"/><path class="cls-2" d="M78.46,117.75l5.7-1.6.52,1.87-7.84,2.21L74,110.11,81.35,108l.53,1.87-5.22,1.47.64,2.27,4.61-1.29.55,2-4.6,1.3Z"/><path class="cls-2" d="M84.06,106.9l2-1.1,4.16,7.43,4.69-2.62.94,1.69L89.16,116Z"/></g></g></svg>